<svg version="1.1" id="Layer_1" xmlns="http://www.w3.org/2000/svg" xmlns:xlink="http://www.w3.org/1999/xlink" x="0px" y="0px"
	 width="100%" viewBox="0 0 512 564" enable-background="new 0 0 512 564" xml:space="preserve">
<path fill="#000000" opacity="1.000000" stroke="none" 
	d="
M513.000000,216.000000 
	C513.000000,332.639679 513.000000,448.779388 513.000000,564.959534 
	C342.399963,564.959534 171.799927,564.959534 1.099938,564.959534 
	C1.099938,377.110352 1.099938,189.220612 1.099938,1.165441 
	C171.666534,1.165441 342.333252,1.165441 513.000000,1.165441 
	C513.000000,72.533386 513.000000,144.016693 513.000000,216.000000 
M432.522675,102.992729 
	C432.356812,102.965897 432.190979,102.939072 432.013763,102.984055 
	C432.013763,102.984055 432.084198,102.966011 431.850616,102.299629 
	C420.250397,95.840096 408.650208,89.380562 397.003326,82.995224 
	C397.003326,82.995224 397.071625,82.940346 396.837860,82.277046 
	C393.228210,80.575165 389.618591,78.873291 385.403259,77.085403 
	C384.886292,76.800491 384.369324,76.515579 384.007111,75.440125 
	C376.018036,70.932243 368.028931,66.424362 360.007812,61.989773 
	C360.007812,61.989773 360.076538,61.948833 359.843628,61.276890 
	C356.222137,59.580818 352.600647,57.884743 348.346893,55.864891 
	C344.516602,53.599091 340.686279,51.333286 336.863983,48.342819 
	C333.596832,46.537930 330.329651,44.733044 327.000000,43.000000 
	C327.000000,43.000000 327.063019,42.928635 326.852020,42.323307 
	C326.237762,42.183514 325.623474,42.043720 325.006042,41.980049 
	C325.006042,41.980049 325.067596,41.935139 324.812042,41.274033 
	C321.885468,39.824398 318.958893,38.374767 315.820099,36.250832 
	C311.894653,34.140015 307.969208,32.029198 304.001648,29.994690 
	C304.001648,29.994690 304.066101,29.936014 303.884155,29.328556 
	C303.279022,29.208456 302.673889,29.088354 301.846741,28.295132 
	C297.910095,26.168692 293.973450,24.042252 290.006836,21.989149 
	C290.006836,21.989149 290.074219,21.947481 289.857758,21.271709 
	C283.591156,17.823277 277.324524,14.374842 271.000000,10.999136 
	C271.000000,10.999136 271.066162,10.933868 270.877289,10.309813 
	C270.253021,10.174824 269.628754,10.039835 269.003204,9.981050 
	C269.003204,9.981050 269.061371,9.931822 268.852142,9.317469 
	C268.231049,9.266660 267.609955,9.215851 266.345612,8.850288 
	C259.946686,3.508732 257.280579,3.522468 250.475952,7.783321 
	C244.063354,11.798715 237.348343,15.329453 230.789200,19.112917 
	C218.530640,26.183924 206.279785,33.268387 194.041946,40.375206 
	C179.404770,48.875378 164.765488,57.372215 150.165115,65.935280 
	C142.798416,70.255814 135.515594,74.719315 127.963142,78.453270 
	C126.957939,78.942482 125.952736,79.431686 124.999695,79.999390 
	C124.999695,79.999390 124.943230,79.924095 124.236359,79.972260 
	C122.799980,80.962296 121.363602,81.952332 119.995171,82.992470 
	C119.995171,82.992470 119.956039,82.917679 119.215302,82.975113 
	C116.090706,85.009285 112.966110,87.043457 109.218369,89.325661 
	C96.155380,96.941185 83.092392,104.556709 69.391998,111.998627 
	C68.908958,112.308243 68.425926,112.617859 68.000977,112.996758 
	C68.000977,112.996758 67.957085,112.917480 67.247688,112.972168 
	C65.807297,113.962654 64.366905,114.953140 62.994015,115.990532 
	C62.994015,115.990532 62.960083,115.915665 62.229298,115.976158 
	C60.132786,117.292892 58.036274,118.609634 56.000000,120.000000 
	C56.000000,120.000000 55.941772,119.924675 55.191448,119.980476 
	C53.986603,121.010895 52.781757,122.041313 51.458469,122.954193 
	C51.458469,122.954193 51.331604,123.062576 50.517658,122.991531 
	C46.651379,125.313118 42.785099,127.634705 38.989021,129.978500 
	C38.989021,129.978500 38.996521,129.905258 38.343967,129.972229 
	C37.872597,130.294449 37.401230,130.616669 36.997566,130.995667 
	C36.997566,130.995667 36.950150,130.921082 36.217136,130.970230 
	C33.783150,132.641708 31.349167,134.313171 28.996422,135.993546 
	C28.996422,135.993546 29.003082,135.912094 28.345177,135.977356 
	C27.871622,136.302429 27.398067,136.627487 26.990969,136.985870 
	C26.990969,136.985870 26.974112,136.913467 26.202101,136.952560 
	C22.445545,139.251999 18.688990,141.551437 14.168738,144.305115 
	C14.098365,170.163071 14.027991,196.021011 13.186839,222.317429 
	C13.177121,238.203934 13.167403,254.090454 13.000288,270.905457 
	C12.994634,291.887512 13.110863,312.870483 12.953445,333.851410 
	C12.741666,362.077759 12.281013,390.302307 12.073442,418.528687 
	C12.059913,420.368500 13.293211,422.217499 14.176846,424.719635 
	C22.091146,429.173553 30.005447,433.627502 38.175148,438.737610 
	C42.861412,441.511810 47.539825,444.299377 52.235756,447.057098 
	C59.699936,451.440552 67.121773,455.900177 74.665817,460.142120 
	C79.643303,462.940887 84.803627,465.414520 90.161987,468.701447 
	C94.590019,472.447327 99.025406,476.184601 103.440979,479.945099 
	C104.571480,480.907837 105.488571,482.231964 106.761131,482.898804 
	C113.962769,486.672485 121.309883,490.171204 128.477966,494.005585 
	C136.387695,498.236816 150.286194,492.786560 152.909454,484.340637 
	C154.585434,478.944550 156.494843,473.621002 158.299606,468.264923 
	C158.998077,479.614075 158.899307,490.766235 159.086441,501.913605 
	C159.121338,503.992920 160.303726,506.052979 161.247726,508.777161 
	C161.827682,509.034576 162.419312,509.268738 162.985779,509.553040 
	C167.314316,511.725586 171.637955,513.907837 175.990189,516.017334 
	C175.990189,516.017334 175.918228,516.037903 176.110977,516.643555 
	C176.505325,516.739502 176.899689,516.835388 177.418030,517.064758 
	C177.418030,517.064758 177.565735,516.958130 178.008591,517.528809 
	C178.674713,517.712280 179.340836,517.895752 179.985779,518.009888 
	C179.985779,518.009888 179.919006,518.038086 180.147766,518.696350 
	C184.586807,521.503357 188.976135,524.393127 193.476669,527.097900 
	C200.031433,531.037231 206.625656,534.915344 213.283630,538.676941 
	C216.753662,540.637451 220.396210,542.292603 223.992203,544.017395 
	C223.992203,544.017395 223.919937,544.037903 224.101974,544.632874 
	C224.484085,544.730774 224.866180,544.828674 225.411316,545.084290 
	C225.411316,545.084290 225.606812,544.969360 226.035812,545.564087 
	C233.344269,549.737305 240.652725,553.910583 247.993805,558.010681 
	C247.993805,558.010681 247.925507,558.052551 248.158966,558.717041 
	C249.759384,559.505066 251.359802,560.293091 252.979782,560.996887 
	C252.979782,560.996887 252.936768,561.072388 253.055389,561.604309 
	C253.369217,561.689026 253.683060,561.773743 254.754654,561.980408 
	C255.818588,561.651245 256.882507,561.322144 258.613617,560.774475 
	C260.218933,559.921875 261.854065,559.120728 263.424927,558.208862 
	C280.950928,548.036072 298.486877,537.880188 315.977814,527.647339 
	C325.343506,522.168152 334.627075,516.548584 344.612793,510.983948 
	C345.103027,510.668213 345.593231,510.352478 345.988739,510.022430 
	C345.988739,510.022430 345.997589,510.117798 346.843231,509.991821 
	C347.735901,509.663757 348.688293,508.943115 349.511963,509.068451 
	C357.507843,510.284882 364.573853,506.734894 371.399445,503.892090 
	C381.951294,499.497314 391.988434,493.815643 402.070648,488.359650 
	C411.046509,483.502319 417.793060,476.361053 422.724152,466.942108 
	C425.923584,465.300323 429.193604,463.781799 432.310760,461.996368 
	C450.280304,451.703766 468.247925,441.406708 486.132355,430.967529 
	C490.039062,428.687164 493.604889,425.822906 497.809570,423.093567 
	C497.961609,423.021484 498.113647,422.949402 499.116669,422.805359 
	C499.741425,421.506989 500.911835,420.209167 500.913116,418.910187 
	C501.002106,328.087830 501.002380,237.265411 500.960022,146.443008 
	C500.959320,144.957016 500.343597,143.471298 500.022064,141.229843 
	C499.814056,140.824600 499.714020,140.233688 499.382477,140.040955 
	C486.820160,132.738693 474.254211,125.442009 461.629883,118.247925 
	C460.291168,117.485046 458.593353,117.352303 457.001221,116.997307 
	C457.001221,116.997307 457.053619,116.920479 456.873413,116.326736 
	C456.280792,116.206139 455.688171,116.085541 455.027344,115.209076 
	C451.037903,113.114616 447.048462,111.020157 443.000000,109.000000 
	C443.000000,109.000000 443.061279,108.927628 442.816803,108.261002 
	C439.896210,106.815544 436.975616,105.370079 434.000000,103.999695 
	C434.000000,103.999695 434.058716,103.927689 433.925659,103.410027 
	C433.617432,103.323952 433.309174,103.237885 432.522675,102.992729 
z"/>
<path fill="#FDFEFE" opacity="1.000000" stroke="none" 
	d="
M421.994843,466.955475 
	C417.793060,476.361053 411.046509,483.502319 402.070648,488.359650 
	C391.988434,493.815643 381.951294,499.497314 371.399445,503.892090 
	C364.573853,506.734894 357.507843,510.284882 349.511963,509.068451 
	C348.688293,508.943115 347.735901,509.663757 346.207764,509.699524 
	C349.861450,507.482788 351.032043,504.334442 350.921204,499.572388 
	C350.483917,480.785919 350.559662,461.987183 350.479858,443.192871 
	C350.439331,433.647827 350.472778,424.102448 350.472778,413.789764 
	C346.954681,415.745178 344.360413,417.161530 341.789917,418.619812 
	C313.198120,434.840332 284.610077,451.067322 255.676697,467.174866 
	C252.678879,465.678741 249.976410,464.386414 247.379501,462.908600 
	C220.331375,447.516754 193.303802,432.088806 166.252533,416.702545 
	C165.068329,416.028992 163.710373,415.660950 161.688599,414.852936 
	C161.688599,421.039307 161.711121,426.351288 161.684753,431.662964 
	C161.560776,456.637238 161.423370,481.611420 161.190033,506.965942 
	C161.045044,507.604828 161.000793,507.863373 160.956558,508.121918 
	C160.303726,506.052979 159.121338,503.992920 159.086441,501.913605 
	C158.899307,490.766235 158.998077,479.614075 158.299606,468.264923 
	C156.494843,473.621002 154.585434,478.944550 152.909454,484.340637 
	C150.286194,492.786560 136.387695,498.236816 128.477966,494.005585 
	C121.309883,490.171204 113.962769,486.672485 106.761131,482.898804 
	C105.488571,482.231964 104.571480,480.907837 103.440979,479.945099 
	C99.025406,476.184601 94.590019,472.447327 90.423264,468.312836 
	C91.455582,466.297852 92.879356,464.680267 92.901436,463.043762 
	C93.356850,429.288605 93.831131,395.531891 93.938614,361.774292 
	C94.101341,310.663971 93.913033,259.552551 94.078026,208.442261 
	C94.100060,201.617523 95.314476,194.796661 95.988350,187.987000 
	C96.000000,188.000000 95.975517,187.974289 96.280411,187.983521 
	C97.039352,187.642548 97.493401,187.292343 98.168762,186.680939 
	C150.219849,157.487274 202.062317,128.577484 253.847778,99.565926 
	C256.944580,97.831017 259.275299,97.744698 262.467590,99.562897 
	C295.261353,118.240753 328.144165,136.762680 361.038483,155.263443 
	C380.584839,166.256912 400.196014,177.135071 419.805359,188.527802 
	C419.958679,206.330643 420.084717,223.670731 420.131348,241.448563 
	C420.117035,244.254196 420.182129,246.622086 420.171387,249.405212 
	C420.166565,253.549667 420.237579,257.278900 420.217590,261.401001 
	C420.197357,262.860168 420.268127,263.926483 420.254578,265.432068 
	C420.245117,268.249054 420.320038,270.626770 420.300598,273.441101 
	C420.294434,276.250183 420.382660,278.622650 420.376038,281.445740 
	C420.377258,285.264801 420.473358,288.633240 420.442444,292.449646 
	C420.457642,296.926514 420.599884,300.955475 420.616516,305.412872 
	C420.615173,310.564850 420.739471,315.288330 420.738800,320.460083 
	C420.724731,324.934814 420.835632,328.961273 420.834015,333.319427 
	C420.800537,334.104797 420.879578,334.558502 420.840454,335.336212 
	C420.806183,336.104584 420.890045,336.548981 420.875366,337.324341 
	C420.846344,338.105225 420.915802,338.555084 420.876343,339.423401 
	C420.846863,341.561218 420.926331,343.280640 420.909485,345.429718 
	C420.888245,347.906250 420.963318,349.953125 420.940369,352.441467 
	C420.916138,355.588806 420.989868,358.294678 420.973358,361.394440 
	C420.947021,362.858582 421.010895,363.928864 420.984253,365.394440 
	C420.958252,366.863708 421.022797,367.937714 421.005981,369.473389 
	C421.016266,382.946350 421.107971,395.957550 421.122009,409.433655 
	C421.118988,427.687347 421.179565,445.476257 421.298859,463.264740 
	C421.307129,464.496490 421.752655,465.725311 421.994843,466.955475 
M193.012878,354.039520 
	C193.012878,354.039520 192.921326,354.072296 193.232620,354.676636 
	C195.481537,355.827454 197.730453,356.978302 200.215622,358.283722 
	C200.215622,358.283722 200.495239,358.244629 200.848221,358.856049 
	C213.786377,366.337097 226.678345,373.899750 239.684296,381.261017 
	C245.272705,384.423981 251.097717,387.168915 256.995453,390.169678 
	C256.995453,390.169678 257.148193,390.053558 256.965759,390.468140 
	C257.317413,390.470917 257.669037,390.473663 258.733276,390.277496 
	C288.770599,373.141357 318.831451,356.045959 348.778656,338.753754 
	C350.343109,337.850372 351.829590,335.286438 351.857147,333.472870 
	C352.370758,299.662811 352.670563,265.849426 352.948639,232.036148 
	C352.961212,230.508835 352.346527,228.976379 351.712402,226.887802 
	C321.529144,209.631119 291.375854,192.321228 261.079346,175.265686 
	C259.464844,174.356796 256.255768,174.908020 254.440506,175.933167 
	C225.326935,192.375229 196.310684,208.989914 167.313370,225.636856 
	C165.848251,226.477966 164.755051,227.966873 163.031799,229.785583 
	C162.966492,264.604187 162.878815,299.422852 162.917206,334.241333 
	C162.918747,335.641205 163.733154,337.640594 164.821777,338.330872 
	C168.725830,340.806274 172.910843,342.838531 177.331909,345.513428 
	C177.876099,345.701996 178.420303,345.890594 179.298920,346.663971 
	C182.536087,348.421539 185.773270,350.179108 189.305908,352.131378 
	C189.305908,352.131378 189.656677,352.177948 190.046677,352.712585 
	C191.008911,353.173889 191.971146,353.635193 193.012878,354.039520 
z"/>
<path fill="#038082" opacity="1.000000" stroke="none" 
	d="
M419.778046,188.065079 
	C400.196014,177.135071 380.584839,166.256912 361.038483,155.263443 
	C328.144165,136.762680 295.261353,118.240753 262.467590,99.562897 
	C259.275299,97.744698 256.944580,97.831017 253.847778,99.565926 
	C202.062317,128.577484 150.219849,157.487274 97.871712,186.688263 
	C96.894073,187.295975 96.434799,187.635132 95.975517,187.974289 
	C95.975517,187.974289 96.000000,188.000000 95.667191,188.006256 
	C94.555817,188.370514 93.777252,188.728500 92.716431,188.890961 
	C67.038612,173.943756 41.643055,159.192078 16.530516,144.234863 
	C20.200396,141.657364 23.587252,139.285416 26.974110,136.913467 
	C26.974112,136.913467 26.990969,136.985870 27.289391,137.155823 
	C28.059570,136.854553 28.531326,136.383331 29.003082,135.912094 
	C29.003082,135.912094 28.996422,135.993546 29.321129,136.080353 
	C32.080608,134.418472 34.515381,132.669769 36.950150,130.921082 
	C36.950150,130.921082 36.997566,130.995667 37.274544,131.243393 
	C38.033188,130.962494 38.514854,130.433884 38.996521,129.905258 
	C38.996521,129.905258 38.989021,129.978500 39.296112,130.160294 
	C43.512669,127.915581 47.422138,125.489082 51.331604,123.062576 
	C51.331604,123.062576 51.458469,122.954193 51.915585,122.970917 
	C53.562393,121.966652 54.752083,120.945663 55.941772,119.924683 
	C55.941772,119.924675 56.000000,120.000000 56.236874,120.294525 
	C58.635857,119.031258 60.797970,117.473457 62.960083,115.915665 
	C62.960083,115.915665 62.994015,115.990532 63.278168,116.223969 
	C65.027237,115.277428 66.492157,114.097450 67.957085,112.917480 
	C67.957085,112.917480 68.000977,112.996758 68.200302,113.269066 
	C68.942886,113.084991 69.486145,112.628616 70.029404,112.172234 
	C83.092392,104.556709 96.155380,96.941185 109.908325,89.279205 
	C113.717537,87.127731 116.836784,85.022705 119.956039,82.917679 
	C119.956039,82.917679 119.995171,82.992470 120.279533,83.229218 
	C122.023674,82.285339 123.483452,81.104713 124.943230,79.924088 
	C124.943230,79.924095 124.999695,79.999390 125.198563,80.304398 
	C126.329910,80.112335 127.262383,79.615257 128.194855,79.118179 
	C135.515594,74.719315 142.798416,70.255814 150.165115,65.935280 
	C164.765488,57.372215 179.404770,48.875378 194.041946,40.375206 
	C206.279785,33.268387 218.530640,26.183924 230.789200,19.112917 
	C237.348343,15.329453 244.063354,11.798715 250.475952,7.783321 
	C257.280579,3.522468 259.946686,3.508732 266.813660,9.343334 
	C267.874908,9.868194 268.468140,9.900007 269.061371,9.931822 
	C269.061371,9.931822 269.003204,9.981050 268.989075,10.365433 
	C269.672028,10.811167 270.369080,10.872518 271.066162,10.933868 
	C271.066162,10.933868 271.000000,10.999136 270.783020,11.267810 
	C277.068756,15.006817 283.571503,18.477150 290.074219,21.947483 
	C290.074219,21.947481 290.006836,21.989149 289.861542,22.290735 
	C293.476257,24.728968 297.236237,26.865616 301.237915,29.284950 
	C302.341736,29.690428 303.203918,29.813221 304.066101,29.936016 
	C304.066101,29.936014 304.001648,29.994690 303.844177,30.289219 
	C307.795776,32.967346 311.904785,35.350941 316.284119,37.965225 
	C319.392151,39.442326 322.229889,40.688732 325.067596,41.935143 
	C325.067596,41.935139 325.006042,41.980049 324.978088,42.375496 
	C325.654419,42.823509 326.358704,42.876072 327.063019,42.928635 
	C327.063019,42.928635 327.000000,43.000000 326.770630,43.258320 
	C329.979492,45.366924 333.417725,47.217205 336.855988,49.067490 
	C340.686279,51.333286 344.516602,53.599091 348.797119,56.331783 
	C352.857056,58.515392 356.466797,60.232113 360.076538,61.948833 
	C360.076538,61.948833 360.007812,61.989773 359.856140,62.289139 
	C367.753754,67.135895 375.803070,71.683281 383.852356,76.230667 
	C384.369324,76.515579 384.886292,76.800491 385.823425,77.441811 
	C389.852966,79.512260 393.462280,81.226303 397.071625,82.940338 
	C397.071625,82.940346 397.003326,82.995224 396.813751,83.279129 
	C405.509308,88.716255 414.356079,93.937515 423.302246,98.982491 
	C426.091400,100.555351 429.149323,101.651581 432.084198,102.966011 
	C432.084198,102.966011 432.013763,102.984055 431.912231,103.272217 
	C432.204590,103.768524 432.598541,103.976654 433.311646,104.338722 
	C433.773438,104.304337 433.916077,104.116013 434.058716,103.927689 
	C434.058716,103.927689 434.000000,103.999695 433.785767,104.273880 
	C436.734802,106.007919 439.898041,107.467773 443.061279,108.927628 
	C443.061279,108.927628 443.000000,109.000000 442.780029,109.266190 
	C446.344543,111.701805 450.129028,113.871231 454.172150,116.335266 
	C455.305054,116.726730 456.179352,116.823601 457.053619,116.920471 
	C457.053619,116.920479 457.001221,116.997307 456.775574,117.261253 
	C459.661591,119.409088 462.756439,121.321342 465.887848,123.171715 
	C476.552368,129.473343 487.229706,135.753174 497.960327,142.355057 
	C497.970886,143.088943 497.923340,143.509140 497.594177,143.968430 
	C496.884216,144.343903 496.455902,144.680283 495.677124,145.063171 
	C482.978119,152.219696 470.598236,159.276062 458.289856,166.454971 
	C446.138214,173.542435 434.058868,180.753830 421.585999,187.932877 
	C420.742126,187.991608 420.260101,188.028351 419.778046,188.065079 
z"/>
<path fill="#0C2045" opacity="1.000000" stroke="none" 
	d="
M421.947815,187.910858 
	C434.058868,180.753830 446.138214,173.542435 458.289856,166.454971 
	C470.598236,159.276062 482.978119,152.219696 495.931702,145.273621 
	C497.478424,146.971024 494.748444,150.806458 499.537964,150.371918 
	C499.581940,151.485199 499.492249,152.237854 499.050842,153.022278 
	C496.352264,155.344467 495.309418,157.480927 499.538086,159.460327 
	C499.706055,220.616272 499.739502,281.322968 499.760132,342.029694 
	C499.760468,343.018829 499.604828,344.008057 499.171021,345.147156 
	C498.545868,347.032318 498.037872,348.766937 498.033173,350.502899 
	C497.977783,371.071106 498.079742,391.640350 497.878571,412.206757 
	C497.856934,414.417999 496.187805,416.613129 495.069519,419.335236 
	C495.369659,419.852570 496.348694,421.540070 497.327698,423.227539 
	C493.604889,425.822906 490.039062,428.687164 486.132355,430.967529 
	C468.247925,441.406708 450.280304,451.703766 432.310760,461.996368 
	C429.193604,463.781799 425.923584,465.300323 422.359497,466.948792 
	C421.752655,465.725311 421.307129,464.496490 421.298859,463.264740 
	C421.179565,445.476257 421.118988,427.687347 421.374207,409.108948 
	C421.803131,406.504364 421.951752,404.690491 421.992249,402.874207 
	C422.128967,396.738983 422.424896,390.598236 422.279663,384.468567 
	C422.157410,379.309753 421.505035,374.163513 421.087341,369.011688 
	C421.022797,367.937714 420.958252,366.863708 421.323547,365.330383 
	C423.616089,363.207947 423.760742,361.851044 421.063568,361.000580 
	C420.989868,358.294678 420.916138,355.588806 421.313293,352.360535 
	C423.494354,349.334595 424.303925,346.933533 421.005768,345.000061 
	C420.926331,343.280640 420.846863,341.561218 421.105774,339.277435 
	C421.287445,338.139832 421.130676,337.566589 420.973938,336.993347 
	C420.890045,336.548981 420.806183,336.104584 421.073578,335.189697 
	C421.265442,334.142029 421.106018,333.564911 420.946533,332.987762 
	C420.835632,328.961273 420.724731,324.934814 421.145020,320.378082 
	C421.966309,315.115082 422.278564,310.383179 422.468689,305.646423 
	C422.476593,305.449158 421.343597,305.206116 420.742126,304.984406 
	C420.599884,300.955475 420.457642,296.926514 420.777100,292.294464 
	C420.982849,288.125946 420.726868,284.560516 420.470886,280.995117 
	C420.382660,278.622650 420.294434,276.250183 420.642578,273.318481 
	C420.832275,270.170410 420.585602,267.581604 420.338898,264.992798 
	C420.268127,263.926483 420.197357,262.860168 420.582489,261.276581 
	C422.149292,256.743805 423.589417,252.706146 420.247223,248.989990 
	C420.182129,246.622086 420.117035,244.254196 420.509979,241.332977 
	C421.312012,239.091187 421.943756,237.404510 421.954346,235.713943 
	C422.036804,222.501770 422.002930,209.288864 421.997681,196.076172 
	C421.996582,193.354401 421.965210,190.632629 421.947815,187.910858 
z"/>
<path fill="#0C2045" opacity="1.000000" stroke="none" 
	d="
M256.021027,467.292572 
	C284.610077,451.067322 313.198120,434.840332 341.789917,418.619812 
	C344.360413,417.161530 346.954681,415.745178 350.472778,413.789764 
	C350.472778,424.102448 350.439331,433.647827 350.479858,443.192871 
	C350.559662,461.987183 350.483917,480.785919 350.921204,499.572388 
	C351.032043,504.334442 349.861450,507.482788 345.784943,509.762512 
	C345.997589,510.117798 345.988739,510.022430 345.768372,509.706726 
	C345.014557,509.924805 344.481140,510.458588 343.947693,510.992371 
	C334.627075,516.548584 325.343506,522.168152 315.977814,527.647339 
	C298.486877,537.880188 280.950928,548.036072 263.424927,558.208862 
	C261.854065,559.120728 260.218933,559.921875 257.924438,560.889954 
	C256.770142,560.947937 256.305084,560.890503 255.870972,560.375916 
	C255.909958,556.764648 255.921692,553.610413 255.925415,550.456238 
	C255.958099,522.734985 255.989349,495.013794 256.021027,467.292572 
z"/>
<path fill="#58CAD4" opacity="1.000000" stroke="none" 
	d="
M255.676697,467.174866 
	C255.989349,495.013794 255.958099,522.734985 255.925415,550.456238 
	C255.921692,553.610413 255.909958,556.764648 255.564636,560.413086 
	C254.814743,560.859131 254.402176,560.810852 253.701630,560.755859 
	C253.254700,560.856873 253.095734,560.964600 252.936768,561.072388 
	C252.936768,561.072388 252.979782,560.996887 253.014114,560.672241 
	C251.340805,559.582581 249.633148,558.817566 247.925507,558.052551 
	C247.925507,558.052551 247.993805,558.010681 248.018890,557.688110 
	C244.047562,554.875427 240.134964,552.235229 236.028503,549.942261 
	C232.674713,548.069519 229.089447,546.611328 225.606812,544.969360 
	C225.606812,544.969360 225.411316,545.084290 225.226944,544.709656 
	C224.668365,544.235962 224.294159,544.136902 223.919952,544.037842 
	C223.919937,544.037903 223.992203,544.017395 224.018066,543.697998 
	C214.993073,537.907227 206.009125,532.320679 196.866364,527.007324 
	C191.344681,523.798340 185.576462,521.013489 179.919006,518.038086 
	C179.919006,518.038086 179.985779,518.009888 179.843658,517.700867 
	C178.989609,517.247253 178.277679,517.102722 177.565735,516.958130 
	C177.565735,516.958130 177.418030,517.064758 177.244385,516.697876 
	C176.686569,516.233337 176.302399,516.135620 175.918228,516.037903 
	C175.918228,516.037903 175.990189,516.017334 176.008484,515.698914 
	C171.114777,512.448853 166.202774,509.517273 161.290771,506.585632 
	C161.423370,481.611420 161.560776,456.637238 161.684753,431.662964 
	C161.711121,426.351288 161.688599,421.039307 161.688599,414.852936 
	C163.710373,415.660950 165.068329,416.028992 166.252533,416.702545 
	C193.303802,432.088806 220.331375,447.516754 247.379501,462.908600 
	C249.976410,464.386414 252.678879,465.678741 255.676697,467.174866 
z"/>
<path fill="#D6FAFB" opacity="1.000000" stroke="none" 
	d="
M92.998703,189.086487 
	C93.777252,188.728500 94.555817,188.370514 95.655540,187.993256 
	C95.314476,194.796661 94.100060,201.617523 94.078026,208.442261 
	C93.913033,259.552551 94.101341,310.663971 93.938614,361.774292 
	C93.831131,395.531891 93.356850,429.288605 92.901436,463.043762 
	C92.879356,464.680267 91.455582,466.297852 90.283302,467.979004 
	C84.803627,465.414520 79.643303,462.940887 74.665817,460.142120 
	C67.121773,455.900177 59.699936,451.440552 52.235756,447.057098 
	C47.539825,444.299377 42.861412,441.511810 38.070869,438.385437 
	C37.966591,438.033264 38.013031,437.984650 38.383751,437.896545 
	C40.131405,438.374786 41.589184,438.799072 42.872734,439.529510 
	C55.457462,446.691254 67.999168,453.928650 80.586815,461.085205 
	C83.791122,462.906921 87.115143,464.518097 91.434250,466.774597 
	C91.960899,373.295105 92.479797,281.190796 92.998703,189.086487 
z"/>
<path fill="#DBFBFC" opacity="1.000000" stroke="none" 
	d="
M13.957617,221.878967 
	C14.027991,196.021011 14.098365,170.163071 14.595318,144.196106 
	C15.021898,144.087097 15.222760,144.239502 15.305579,144.601181 
	C15.346708,149.398178 15.285093,153.833435 15.266870,158.268845 
	C15.197540,175.143524 15.142220,192.018234 15.032179,209.369049 
	C14.995304,220.241470 15.007915,230.637787 15.034706,241.500458 
	C14.704402,302.637604 14.359919,363.308411 13.993242,423.995819 
	C13.971050,424.012451 13.946526,424.062225 13.946529,424.062225 
	C13.293211,422.217499 12.059913,420.368500 12.073442,418.528687 
	C12.281013,390.302307 12.741666,362.077759 12.953445,333.851410 
	C13.110863,312.870483 12.994634,291.887512 13.343544,270.124115 
	C13.777072,253.521500 13.867345,237.700241 13.957617,221.878967 
z"/>
<path fill="#FEFEFF" opacity="1.000000" stroke="none" 
	d="
M499.522003,344.997223 
	C499.604828,344.008057 499.760468,343.018829 499.760132,342.029694 
	C499.739502,281.322968 499.706055,220.616272 499.666443,159.043945 
	C499.573547,156.449036 499.488037,154.719772 499.402527,152.990494 
	C499.492249,152.237854 499.581940,151.485199 499.665802,149.957870 
	C499.606293,147.458664 499.552643,145.734146 499.595703,143.641876 
	C499.813019,142.831436 499.933594,142.388763 500.036255,141.947906 
	C500.018372,141.949707 500.014862,141.985458 500.014862,141.985458 
	C500.343597,143.471298 500.959320,144.957016 500.960022,146.443008 
	C501.002380,237.265411 501.002106,328.087830 500.913116,418.910187 
	C500.911835,420.209167 499.741425,421.506989 498.884399,422.556885 
	C499.019348,421.653961 499.708008,420.999298 499.707428,420.345184 
	C499.684937,395.229187 499.599274,370.113190 499.522003,344.997223 
z"/>
<path fill="#0B1F39" opacity="1.000000" stroke="none" 
	d="
M499.171021,345.147156 
	C499.599274,370.113190 499.684937,395.229187 499.707428,420.345184 
	C499.708008,420.999298 499.019348,421.653961 498.458893,422.592834 
	C498.113647,422.949402 497.961609,423.021484 497.568634,423.160583 
	C496.348694,421.540070 495.369659,419.852570 495.069519,419.335236 
	C496.187805,416.613129 497.856934,414.417999 497.878571,412.206757 
	C498.079742,391.640350 497.977783,371.071106 498.033173,350.502899 
	C498.037872,348.766937 498.545868,347.032318 499.171021,345.147156 
z"/>
<path fill="#D5F9FA" opacity="1.000000" stroke="none" 
	d="
M180.033386,518.367188 
	C185.576462,521.013489 191.344681,523.798340 196.866364,527.007324 
	C206.009125,532.320679 214.993073,537.907227 224.002380,543.732178 
	C220.396210,542.292603 216.753662,540.637451 213.283630,538.676941 
	C206.625656,534.915344 200.031433,531.037231 193.476669,527.097900 
	C188.976135,524.393127 184.586807,521.503357 180.033386,518.367188 
z"/>
<path fill="#D5F4F4" opacity="1.000000" stroke="none" 
	d="
M497.902161,142.041351 
	C487.229706,135.753174 476.552368,129.473343 465.887848,123.171715 
	C462.756439,121.321342 459.661591,119.409088 456.806030,117.226212 
	C458.593353,117.352303 460.291168,117.485046 461.629883,118.247925 
	C474.254211,125.442009 486.820160,132.738693 499.382477,140.040955 
	C499.714020,140.233688 499.814056,140.824600 500.018463,141.607651 
	C500.014862,141.985458 500.018372,141.949707 499.734802,142.214478 
	C498.934906,142.333267 498.418518,142.187317 497.902161,142.041351 
z"/>
<path fill="#D3F5F5" opacity="1.000000" stroke="none" 
	d="
M431.967407,102.632820 
	C429.149323,101.651581 426.091400,100.555351 423.302246,98.982491 
	C414.356079,93.937515 405.509308,88.716255 396.837097,83.242027 
	C408.650208,89.380562 420.250397,95.840096 431.967407,102.632820 
z"/>
<path fill="#D6FAFB" opacity="1.000000" stroke="none" 
	d="
M37.943169,438.057373 
	C30.005447,433.627502 22.091146,429.173553 14.061686,424.390930 
	C13.946526,424.062225 13.971050,424.012451 14.364049,423.948120 
	C22.106993,427.933472 29.469494,431.960815 36.782963,436.075317 
	C37.366386,436.403534 37.610977,437.334045 38.013031,437.984650 
	C38.013031,437.984650 37.966591,438.033264 37.943169,438.057373 
z"/>
<path fill="#D0F4F4" opacity="1.000000" stroke="none" 
	d="
M383.929749,75.835396 
	C375.803070,71.683281 367.753754,67.135895 359.872162,62.252495 
	C368.028931,66.424362 376.018036,70.932243 383.929749,75.835396 
z"/>
<path fill="#FFFFFF" opacity="1.000000" stroke="none" 
	d="
M13.572228,222.098206 
	C13.867345,237.700241 13.777072,253.521500 13.422242,269.659851 
	C13.167403,254.090454 13.177121,238.203934 13.572228,222.098206 
z"/>
<path fill="#D5F9FA" opacity="1.000000" stroke="none" 
	d="
M225.821320,545.266724 
	C229.089447,546.611328 232.674713,548.069519 236.028503,549.942261 
	C240.134964,552.235229 244.047562,554.875427 248.002594,557.724670 
	C240.652725,553.910583 233.344269,549.737305 225.821320,545.266724 
z"/>
<path fill="#D2F5F5" opacity="1.000000" stroke="none" 
	d="
M289.966003,21.609596 
	C283.571503,18.477150 277.068756,15.006817 270.811981,11.231445 
	C277.324524,14.374842 283.591156,17.823277 289.966003,21.609596 
z"/>
<path fill="#D5F9FA" opacity="1.000000" stroke="none" 
	d="
M161.190033,506.965942 
	C166.202774,509.517273 171.114777,512.448853 175.994949,515.733765 
	C171.637955,513.907837 167.314316,511.725586 162.985779,509.553040 
	C162.419312,509.268738 161.827682,509.034576 161.102142,508.449524 
	C161.000793,507.863373 161.045044,507.604828 161.190033,506.965942 
z"/>
<path fill="#D7F5F6" opacity="1.000000" stroke="none" 
	d="
M453.913513,116.040665 
	C450.129028,113.871231 446.344543,111.701805 442.809540,109.229034 
	C447.048462,111.020157 451.037903,113.114616 454.765808,115.603691 
	C454.307312,116.012428 454.110413,116.026543 453.913513,116.040665 
z"/>
<path fill="#D1F4F4" opacity="1.000000" stroke="none" 
	d="
M50.924629,123.027054 
	C47.422138,125.489082 43.512669,127.915581 39.261013,130.149185 
	C42.785099,127.634705 46.651379,125.313118 50.924629,123.027054 
z"/>
<path fill="#CDF1F1" opacity="1.000000" stroke="none" 
	d="
M316.013824,37.734535 
	C311.904785,35.350941 307.795776,32.967346 303.865234,30.251064 
	C307.969208,32.029198 311.894653,34.140015 315.926758,36.790413 
	C316.033386,37.329998 316.013824,37.734531 316.013824,37.734535 
z"/>
<path fill="#B8EAEA" opacity="1.000000" stroke="none" 
	d="
M26.588104,136.933014 
	C23.587252,139.285416 20.200396,141.657364 16.273357,144.191498 
	C15.563039,144.315628 15.392900,144.277573 15.222760,144.239502 
	C15.222760,144.239502 15.021898,144.087097 14.977167,143.968994 
	C18.688990,141.551437 22.445545,139.251999 26.588104,136.933014 
z"/>
<path fill="#D2F5F5" opacity="1.000000" stroke="none" 
	d="
M300.996246,29.002260 
	C297.236237,26.865616 293.476257,24.728968 289.876526,22.254066 
	C293.973450,24.042252 297.910095,26.168692 301.689575,28.637436 
	C301.353699,28.987244 301.174988,28.994751 300.996246,29.002260 
z"/>
<path fill="#D3F5F5" opacity="1.000000" stroke="none" 
	d="
M396.954742,82.608688 
	C393.462280,81.226303 389.852966,79.512260 386.126282,77.484818 
	C389.618591,78.873291 393.228210,80.575165 396.954742,82.608688 
z"/>
<path fill="#D4F5F6" opacity="1.000000" stroke="none" 
	d="
M336.859985,48.705154 
	C333.417725,47.217205 329.979492,45.366924 326.801880,43.222397 
	C330.329651,44.733044 333.596832,46.537930 336.859985,48.705154 
z"/>
<path fill="#D0F4F4" opacity="1.000000" stroke="none" 
	d="
M359.960083,61.612862 
	C356.466797,60.232113 352.857056,58.515392 349.113220,56.493671 
	C352.600647,57.884743 356.222137,59.580818 359.960083,61.612862 
z"/>
<path fill="#D2F4F4" opacity="1.000000" stroke="none" 
	d="
M119.585663,82.946396 
	C116.836784,85.022705 113.717537,87.127731 110.219894,89.155197 
	C112.966110,87.043457 116.090706,85.009285 119.585663,82.946396 
z"/>
<path fill="#D4F5F6" opacity="1.000000" stroke="none" 
	d="
M316.284119,37.965225 
	C316.013824,37.734531 316.033386,37.329998 316.032837,37.127567 
	C318.958893,38.374767 321.885468,39.824398 324.939819,41.604588 
	C322.229889,40.688732 319.392151,39.442326 316.284119,37.965225 
z"/>
<path fill="#D7F5F6" opacity="1.000000" stroke="none" 
	d="
M442.939026,108.594315 
	C439.898041,107.467773 436.734802,106.007919 433.813293,104.236336 
	C436.975616,105.370079 439.896210,106.815544 442.939026,108.594315 
z"/>
<path fill="#D1F4F4" opacity="1.000000" stroke="none" 
	d="
M36.583641,130.945648 
	C34.515381,132.669769 32.080608,134.418472 29.280510,136.075897 
	C31.349167,134.313171 33.783150,132.641708 36.583641,130.945648 
z"/>
<path fill="#D2F5F5" opacity="1.000000" stroke="none" 
	d="
M62.594688,115.945908 
	C60.797970,117.473457 58.635857,119.031258 56.206757,120.257721 
	C58.036274,118.609634 60.132786,117.292892 62.594688,115.945908 
z"/>
<path fill="#D5F9FA" opacity="1.000000" stroke="none" 
	d="
M248.042236,558.384766 
	C249.633148,558.817566 251.340805,559.582581 253.004333,560.714355 
	C251.359802,560.293091 249.759384,559.505066 248.042236,558.384766 
z"/>
<path fill="#D2F4F4" opacity="1.000000" stroke="none" 
	d="
M124.589798,79.948174 
	C123.483452,81.104713 122.023674,82.285339 120.245560,83.204163 
	C121.363602,81.952332 122.799980,80.962296 124.589798,79.948174 
z"/>
<path fill="#D2F5F5" opacity="1.000000" stroke="none" 
	d="
M67.602386,112.944824 
	C66.492157,114.097450 65.027237,115.277428 63.244415,116.200516 
	C64.366905,114.953140 65.807297,113.962654 67.602386,112.944824 
z"/>
<path fill="#D2F5F5" opacity="1.000000" stroke="none" 
	d="
M55.566612,119.952576 
	C54.752083,120.945663 53.562393,121.966652 51.974804,123.029686 
	C52.781757,122.041313 53.986603,121.010895 55.566612,119.952576 
z"/>
<path fill="#D2F4F4" opacity="1.000000" stroke="none" 
	d="
M128.078995,78.785721 
	C127.262383,79.615257 126.329910,80.112335 125.172485,80.265152 
	C125.952736,79.431686 126.957939,78.942482 128.078995,78.785721 
z"/>
<path fill="#D6F7F9" opacity="1.000000" stroke="none" 
	d="
M253.989609,560.762512 
	C254.402176,560.810852 254.814743,560.859131 255.533661,560.870239 
	C256.305084,560.890503 256.770142,560.947937 257.590820,560.999207 
	C256.882507,561.322144 255.818588,561.651245 254.375626,561.645386 
	C253.994263,561.127808 253.991943,560.945190 253.989609,560.762512 
z"/>
<path fill="#CDF1F1" opacity="1.000000" stroke="none" 
	d="
M301.237915,29.284946 
	C301.174988,28.994751 301.353699,28.987244 301.800598,28.973995 
	C302.673889,29.088354 303.279022,29.208456 303.975128,29.632286 
	C303.203918,29.813221 302.341736,29.690428 301.237915,29.284946 
z"/>
<path fill="#D5F4F4" opacity="1.000000" stroke="none" 
	d="
M454.172150,116.335258 
	C454.110413,116.026543 454.307312,116.012428 454.799896,115.981628 
	C455.688171,116.085541 456.280792,116.206139 456.963501,116.623604 
	C456.179352,116.823601 455.305054,116.726730 454.172150,116.335258 
z"/>
<path fill="#FDFEFE" opacity="1.000000" stroke="none" 
	d="
M344.280243,510.988159 
	C344.481140,510.458588 345.014557,509.924805 345.815704,509.713867 
	C345.593231,510.352478 345.103027,510.668213 344.280243,510.988159 
z"/>
<path fill="#D4F5F6" opacity="1.000000" stroke="none" 
	d="
M326.957520,42.625969 
	C326.358704,42.876072 325.654419,42.823509 324.979675,42.337437 
	C325.623474,42.043720 326.237762,42.183514 326.957520,42.625969 
z"/>
<path fill="#D2F5F5" opacity="1.000000" stroke="none" 
	d="
M69.710693,112.085434 
	C69.486145,112.628616 68.942886,113.084991 68.171265,113.234421 
	C68.425926,112.617859 68.908958,112.308243 69.710693,112.085434 
z"/>
<path fill="#D5F9FA" opacity="1.000000" stroke="none" 
	d="
M177.787170,517.243469 
	C178.277679,517.102722 178.989609,517.247253 179.854248,517.735535 
	C179.340836,517.895752 178.674713,517.712280 177.787170,517.243469 
z"/>
<path fill="#D2F5F5" opacity="1.000000" stroke="none" 
	d="
M268.956757,9.624645 
	C268.468140,9.900007 267.874908,9.868194 267.135254,9.500710 
	C267.609955,9.215851 268.231049,9.266660 268.956757,9.624645 
z"/>
<path fill="#D1F4F4" opacity="1.000000" stroke="none" 
	d="
M38.670246,129.938751 
	C38.514854,130.433884 38.033188,130.962494 37.240692,131.214996 
	C37.401230,130.616669 37.872597,130.294449 38.670246,129.938751 
z"/>
<path fill="#B8EAEA" opacity="1.000000" stroke="none" 
	d="
M28.674129,135.944733 
	C28.531326,136.383331 28.059570,136.854553 27.256163,137.139175 
	C27.398067,136.627487 27.871622,136.302429 28.674129,135.944733 
z"/>
<path fill="#D2F5F5" opacity="1.000000" stroke="none" 
	d="
M270.971741,10.621841 
	C270.369080,10.872518 269.672028,10.811167 268.989716,10.327330 
	C269.628754,10.039835 270.253021,10.174824 270.971741,10.621841 
z"/>
<path fill="#D5F9FA" opacity="1.000000" stroke="none" 
	d="
M176.014603,516.340698 
	C176.302399,516.135620 176.686569,516.233337 177.182404,516.631165 
	C176.899689,516.835388 176.505325,516.739502 176.014603,516.340698 
z"/>
<path fill="#D5F9FA" opacity="1.000000" stroke="none" 
	d="
M224.010956,544.335327 
	C224.294159,544.136902 224.668365,544.235962 225.145416,544.630859 
	C224.866180,544.828674 224.484085,544.730774 224.010956,544.335327 
z"/>
<path fill="#D7F5F6" opacity="1.000000" stroke="none" 
	d="
M433.992188,103.668854 
	C433.916077,104.116013 433.773438,104.304337 433.314941,104.080025 
	C432.999725,103.495529 433.000336,103.323669 433.000946,103.151810 
	C433.309174,103.237885 433.617432,103.323952 433.992188,103.668854 
z"/>
<path fill="#D3F5F5" opacity="1.000000" stroke="none" 
	d="
M432.761810,103.072266 
	C433.000336,103.323669 432.999725,103.495529 432.995789,103.926086 
	C432.598541,103.976654 432.204590,103.768524 431.917908,103.236313 
	C432.190979,102.939072 432.356812,102.965897 432.761810,103.072266 
z"/>
<path fill="#D5F9FA" opacity="1.000000" stroke="none" 
	d="
M253.701630,560.755859 
	C253.991943,560.945190 253.994263,561.127808 253.996750,561.584412 
	C253.683060,561.773743 253.369217,561.689026 252.996078,561.338379 
	C253.095734,560.964600 253.254700,560.856873 253.701630,560.755859 
z"/>
<path fill="#047F82" opacity="1.000000" stroke="none" 
	d="
M163.488693,229.154190 
	C164.755051,227.966873 165.848251,226.477966 167.313370,225.636856 
	C196.310684,208.989914 225.326935,192.375229 254.440506,175.933167 
	C256.255768,174.908020 259.464844,174.356796 261.079346,175.265686 
	C291.375854,192.321228 321.529144,209.631119 351.751648,227.517853 
	C350.993317,228.725204 350.240051,229.379257 349.391785,229.868729 
	C323.564392,244.771896 297.745911,259.690704 271.875671,274.519257 
	C267.183014,277.209015 262.272583,279.518890 257.083435,281.941742 
	C235.304428,269.563690 213.921799,257.218079 192.496780,244.946564 
	C183.457642,239.769272 174.329117,234.747986 164.997681,229.435516 
	C164.332306,229.194901 163.910507,229.174545 163.488693,229.154190 
z"/>
<path fill="#0B1F44" opacity="1.000000" stroke="none" 
	d="
M257.462708,282.004150 
	C262.272583,279.518890 267.183014,277.209015 271.875671,274.519257 
	C297.745911,259.690704 323.564392,244.771896 349.391785,229.868729 
	C350.240051,229.379257 350.993317,228.725204 351.907410,227.797089 
	C352.346527,228.976379 352.961212,230.508835 352.948639,232.036148 
	C352.670563,265.849426 352.370758,299.662811 351.857147,333.472870 
	C351.829590,335.286438 350.343109,337.850372 348.778656,338.753754 
	C318.831451,356.045959 288.770599,373.141357 258.194489,390.198914 
	C257.486542,390.098083 257.317352,390.075806 257.148193,390.053558 
	C257.148193,390.053558 256.995453,390.169678 257.070251,389.685883 
	C257.141541,353.791321 257.138000,318.380554 257.239685,282.736267 
	C257.384186,282.336517 257.423431,282.170319 257.462708,282.004150 
z"/>
<path fill="#56CAD4" opacity="1.000000" stroke="none" 
	d="
M257.083435,281.941742 
	C257.423431,282.170319 257.384186,282.336517 256.914276,283.010742 
	C256.323090,285.318420 256.024170,287.118011 256.022491,288.917847 
	C255.993500,319.672791 256.007996,350.427795 255.984436,381.182770 
	C255.982986,383.046478 255.743118,384.909973 255.541077,387.830292 
	C251.085892,385.236267 247.608154,383.158539 244.081299,381.167816 
	C233.868134,375.403137 223.695633,369.561676 213.380310,363.984985 
	C209.256180,361.755402 204.800186,360.139740 200.495239,358.244629 
	C200.495239,358.244629 200.215622,358.283722 200.072784,357.831360 
	C197.593719,356.276764 195.257523,355.174530 192.921326,354.072296 
	C192.921326,354.072296 193.012878,354.039520 192.941254,353.691895 
	C191.798660,352.955475 190.727676,352.566711 189.656677,352.177948 
	C189.656677,352.177948 189.305908,352.131378 189.120972,351.688354 
	C185.612198,349.523285 182.288345,347.801208 178.964493,346.079163 
	C178.420303,345.890594 177.876099,345.701996 177.119202,344.930450 
	C174.388672,342.553772 172.043808,340.412506 169.310303,339.052216 
	C165.702133,337.256683 163.851593,335.201782 163.882874,330.730682 
	C164.102798,299.286682 163.979752,267.840454 164.061600,236.395157 
	C164.067444,234.147690 164.830338,231.902206 165.241226,229.655792 
	C174.329117,234.747986 183.457642,239.769272 192.496780,244.946564 
	C213.921799,257.218079 235.304428,269.563690 257.083435,281.941742 
z"/>
<path fill="#73C6D1" opacity="1.000000" stroke="none" 
	d="
M200.671722,358.550354 
	C204.800186,360.139740 209.256180,361.755402 213.380310,363.984985 
	C223.695633,369.561676 233.868134,375.403137 244.081299,381.167816 
	C247.608154,383.158539 251.085892,385.236267 255.541077,387.830292 
	C255.743118,384.909973 255.982986,383.046478 255.984436,381.182770 
	C256.007996,350.427795 255.993500,319.672791 256.022491,288.917847 
	C256.024170,287.118011 256.323090,285.318420 256.809052,283.244263 
	C257.138000,318.380554 257.141541,353.791321 256.980164,389.652954 
	C251.097717,387.168915 245.272705,384.423981 239.684296,381.261017 
	C226.678345,373.899750 213.786377,366.337097 200.671722,358.550354 
z"/>
<path fill="#73C6D1" opacity="1.000000" stroke="none" 
	d="
M164.997681,229.435516 
	C164.830338,231.902206 164.067444,234.147690 164.061600,236.395157 
	C163.979752,267.840454 164.102798,299.286682 163.882874,330.730682 
	C163.851593,335.201782 165.702133,337.256683 169.310303,339.052216 
	C172.043808,340.412506 174.388672,342.553772 176.948059,344.692932 
	C172.910843,342.838531 168.725830,340.806274 164.821777,338.330872 
	C163.733154,337.640594 162.918747,335.641205 162.917206,334.241333 
	C162.878815,299.422852 162.966492,264.604187 163.260254,229.469879 
	C163.910507,229.174545 164.332306,229.194901 164.997681,229.435516 
z"/>
<path fill="#0F2038" opacity="1.000000" stroke="none" 
	d="
M421.585999,187.932861 
	C421.965210,190.632629 421.996582,193.354401 421.997681,196.076172 
	C422.002930,209.288864 422.036804,222.501770 421.954346,235.713943 
	C421.943756,237.404510 421.312012,239.091187 420.589417,240.895248 
	C420.084717,223.670731 419.958679,206.330643 419.805359,188.527802 
	C420.260101,188.028351 420.742126,187.991608 421.585999,187.932861 
z"/>
<path fill="#0F2038" opacity="1.000000" stroke="none" 
	d="
M421.005981,369.473389 
	C421.505035,374.163513 422.157410,379.309753 422.279663,384.468567 
	C422.424896,390.598236 422.128967,396.738983 421.992249,402.874207 
	C421.951752,404.690491 421.803131,406.504364 421.451904,408.644043 
	C421.107971,395.957550 421.016266,382.946350 421.005981,369.473389 
z"/>
<path fill="#0F2038" opacity="1.000000" stroke="none" 
	d="
M420.616516,305.412872 
	C421.343597,305.206116 422.476593,305.449158 422.468689,305.646423 
	C422.278564,310.383179 421.966309,315.115082 421.270020,319.929840 
	C420.739471,315.288330 420.615173,310.564850 420.616516,305.412872 
z"/>
<path fill="#73C6D1" opacity="1.000000" stroke="none" 
	d="
M179.131714,346.371582 
	C182.288345,347.801208 185.612198,349.523285 188.973251,351.591003 
	C185.773270,350.179108 182.536087,348.421539 179.131714,346.371582 
z"/>
<path fill="#0F2038" opacity="1.000000" stroke="none" 
	d="
M420.171387,249.405212 
	C423.589417,252.706146 422.149292,256.743805 420.673462,260.883728 
	C420.237579,257.278900 420.166565,253.549667 420.171387,249.405212 
z"/>
<path fill="#0F2038" opacity="1.000000" stroke="none" 
	d="
M420.376038,281.445740 
	C420.726868,284.560516 420.982849,288.125946 420.904144,291.846497 
	C420.473358,288.633240 420.377258,285.264801 420.376038,281.445740 
z"/>
<path fill="#0F2038" opacity="1.000000" stroke="none" 
	d="
M420.254578,265.432068 
	C420.585602,267.581604 420.832275,270.170410 420.736969,272.881836 
	C420.320038,270.626770 420.245117,268.249054 420.254578,265.432068 
z"/>
<path fill="#73C6D1" opacity="1.000000" stroke="none" 
	d="
M193.076965,354.374451 
	C195.257523,355.174530 197.593719,356.276764 199.954651,357.754059 
	C197.730453,356.978302 195.481537,355.827454 193.076965,354.374451 
z"/>
<path fill="#0F2038" opacity="1.000000" stroke="none" 
	d="
M420.909485,345.429718 
	C424.303925,346.933533 423.494354,349.334595 421.411285,351.919098 
	C420.963318,349.953125 420.888245,347.906250 420.909485,345.429718 
z"/>
<path fill="#0F2038" opacity="1.000000" stroke="none" 
	d="
M420.973358,361.394440 
	C423.760742,361.851044 423.616089,363.207947 421.414062,364.935120 
	C421.010895,363.928864 420.947021,362.858582 420.973358,361.394440 
z"/>
<path fill="#73C6D1" opacity="1.000000" stroke="none" 
	d="
M189.851685,352.445251 
	C190.727676,352.566711 191.798660,352.955475 192.901505,353.720398 
	C191.971146,353.635193 191.008911,353.173889 189.851685,352.445251 
z"/>
<path fill="#0F2038" opacity="1.000000" stroke="none" 
	d="
M420.875397,337.324341 
	C421.130676,337.566589 421.287445,338.139832 421.214722,338.859009 
	C420.915802,338.555084 420.846344,338.105225 420.875397,337.324341 
z"/>
<path fill="#D6FAFB" opacity="1.000000" stroke="none" 
	d="
M96.280411,187.983521 
	C96.434799,187.635132 96.894073,187.295975 97.650406,186.949493 
	C97.493401,187.292343 97.039352,187.642548 96.280411,187.983521 
z"/>
<path fill="#0F2038" opacity="1.000000" stroke="none" 
	d="
M420.834045,333.319427 
	C421.106018,333.564911 421.265442,334.142029 421.191711,334.865692 
	C420.879578,334.558502 420.800537,334.104797 420.834045,333.319427 
z"/>
<path fill="#047F82" opacity="1.000000" stroke="none" 
	d="
M257.056976,390.260864 
	C257.317352,390.075806 257.486542,390.098083 257.838196,390.298401 
	C257.669037,390.473663 257.317413,390.470917 257.056976,390.260864 
z"/>
<path fill="#57CAD4" opacity="1.000000" stroke="none" 
	d="
M15.305579,144.601181 
	C15.392900,144.277573 15.563039,144.315628 15.990335,144.397034 
	C41.643055,159.192078 67.038612,173.943756 92.716438,188.890961 
	C92.479797,281.190796 91.960899,373.295105 91.434250,466.774597 
	C87.115143,464.518097 83.791122,462.906921 80.586815,461.085205 
	C67.999168,453.928650 55.457462,446.691254 42.872734,439.529510 
	C41.589184,438.799072 40.131405,438.374786 38.383751,437.896545 
	C37.610977,437.334045 37.366386,436.403534 36.782963,436.075317 
	C29.469494,431.960815 22.106993,427.933472 14.386242,423.931488 
	C14.359919,363.308411 14.704402,302.637604 15.271034,241.162720 
	C15.604567,235.587509 15.862921,230.814133 15.789441,226.045853 
	C15.701297,220.325943 15.330223,214.610382 15.081666,208.892944 
	C15.142220,192.018234 15.197540,175.143524 15.266870,158.268845 
	C15.285093,153.833435 15.346708,149.398178 15.305579,144.601181 
z"/>
<path fill="#0B1F39" opacity="1.000000" stroke="none" 
	d="
M499.498962,144.009628 
	C499.552643,145.734146 499.606293,147.458664 499.532104,149.597229 
	C494.748444,150.806458 497.478424,146.971024 496.282166,145.227112 
	C496.455902,144.680283 496.884216,144.343903 497.864868,143.994461 
	C498.777771,143.990799 499.138367,144.000214 499.498962,144.009628 
z"/>
<path fill="#0C2045" opacity="1.000000" stroke="none" 
	d="
M499.595703,143.641876 
	C499.138367,144.000214 498.777771,143.990799 498.146484,143.955353 
	C497.923340,143.509140 497.970886,143.088943 497.960327,142.355057 
	C498.418518,142.187317 498.934906,142.333267 499.752686,142.212662 
	C499.933594,142.388763 499.813019,142.831436 499.595703,143.641876 
z"/>
<path fill="#0B1F39" opacity="1.000000" stroke="none" 
	d="
M499.050842,153.022278 
	C499.488037,154.719772 499.573547,156.449036 499.530701,158.594711 
	C495.309418,157.480927 496.352264,155.344467 499.050842,153.022278 
z"/>
<path fill="#B8EAEA" opacity="1.000000" stroke="none" 
	d="
M15.032179,209.369049 
	C15.330223,214.610382 15.701297,220.325943 15.789441,226.045853 
	C15.862921,230.814133 15.604567,235.587509 15.256853,240.696365 
	C15.007915,230.637787 14.995304,220.241470 15.032179,209.369049 
z"/>
</svg>